<mxfile host="app.diagrams.net" modified="2022-08-14T13:28:08.531Z" agent="5.0 (Windows NT 10.0; Win64; x64) AppleWebKit/537.36 (KHTML, like Gecko) Chrome/104.0.0.0 Safari/537.36" etag="vchHW5yu6uHlo9i7dpYT" version="20.0.4" type="github">
  <diagram id="YFkXL3fBNi0O0Rlu2lF0" name="Page-1">
    <mxGraphModel dx="1038" dy="547" grid="1" gridSize="10" guides="1" tooltips="1" connect="1" arrows="1" fold="1" page="1" pageScale="1" pageWidth="827" pageHeight="1169" math="0" shadow="0">
      <root>
        <mxCell id="0" />
        <mxCell id="1" parent="0" />
        <mxCell id="sXX7g1JH8O0ffYym9T2T-3" value="" style="edgeStyle=orthogonalEdgeStyle;rounded=0;orthogonalLoop=1;jettySize=auto;html=1;" edge="1" parent="1" source="sXX7g1JH8O0ffYym9T2T-1" target="sXX7g1JH8O0ffYym9T2T-2">
          <mxGeometry relative="1" as="geometry" />
        </mxCell>
        <mxCell id="sXX7g1JH8O0ffYym9T2T-1" value="Hive表命中的敏感标签" style="rounded=0;whiteSpace=wrap;html=1;" vertex="1" parent="1">
          <mxGeometry x="10" y="160" width="120" height="60" as="geometry" />
        </mxCell>
        <mxCell id="sXX7g1JH8O0ffYym9T2T-5" value="" style="edgeStyle=orthogonalEdgeStyle;rounded=0;orthogonalLoop=1;jettySize=auto;html=1;" edge="1" parent="1" source="sXX7g1JH8O0ffYym9T2T-2" target="sXX7g1JH8O0ffYym9T2T-4">
          <mxGeometry relative="1" as="geometry" />
        </mxCell>
        <mxCell id="sXX7g1JH8O0ffYym9T2T-2" value="高安全等级责任体" style="rounded=0;whiteSpace=wrap;html=1;" vertex="1" parent="1">
          <mxGeometry x="160" y="160" width="120" height="60" as="geometry" />
        </mxCell>
        <mxCell id="sXX7g1JH8O0ffYym9T2T-7" value="" style="edgeStyle=orthogonalEdgeStyle;rounded=0;orthogonalLoop=1;jettySize=auto;html=1;" edge="1" parent="1" source="sXX7g1JH8O0ffYym9T2T-4" target="sXX7g1JH8O0ffYym9T2T-6">
          <mxGeometry relative="1" as="geometry" />
        </mxCell>
        <mxCell id="sXX7g1JH8O0ffYym9T2T-4" value="中安全等级责任体" style="rounded=0;whiteSpace=wrap;html=1;" vertex="1" parent="1">
          <mxGeometry x="320" y="160" width="120" height="60" as="geometry" />
        </mxCell>
        <mxCell id="sXX7g1JH8O0ffYym9T2T-9" value="" style="edgeStyle=orthogonalEdgeStyle;rounded=0;orthogonalLoop=1;jettySize=auto;html=1;" edge="1" parent="1" source="sXX7g1JH8O0ffYym9T2T-6" target="sXX7g1JH8O0ffYym9T2T-8">
          <mxGeometry relative="1" as="geometry" />
        </mxCell>
        <mxCell id="sXX7g1JH8O0ffYym9T2T-6" value="低安全等级责任体" style="rounded=0;whiteSpace=wrap;html=1;" vertex="1" parent="1">
          <mxGeometry x="490" y="160" width="120" height="60" as="geometry" />
        </mxCell>
        <mxCell id="sXX7g1JH8O0ffYym9T2T-8" value="非敏感" style="rounded=0;whiteSpace=wrap;html=1;" vertex="1" parent="1">
          <mxGeometry x="640" y="160" width="120" height="60" as="geometry" />
        </mxCell>
      </root>
    </mxGraphModel>
  </diagram>
</mxfile>
